<svg xmlns="http://www.w3.org/2000/svg" width="1920" height="1080" viewBox="0 0 1920 1080" version="1.1"><path d="M 892.500 336.705 C 917.531 337.413, 940.002 337.434, 940.001 336.750 C 940.001 336.337, 927.063 336.095, 911.250 336.211 C 895.438 336.327, 887 336.549, 892.500 336.705 M 1082.750 336.749 C 1093.782 336.928, 1101 337.432, 1101 338.024 C 1101 340.026, 1046.591 424.062, 1023.969 457 C 1015.176 469.802, 1002.143 487.417, 992.523 499.500 C 962.317 537.440, 953.978 547.741, 952.124 549.405 L 950 551.310 950 504.311 L 950 457.312 959.342 442.406 C 975.976 415.867, 985.839 400.499, 1004.848 371.500 C 1017.322 352.471, 1034.708 340.933, 1055.367 337.975 L 1061.500 337.097 1055 337.457 C 1036.124 338.501, 1017.292 350.633, 1004.168 370.203 C 998.087 379.271, 976.459 413.020, 960.372 438.544 L 949 456.587 949 504.294 C 949 542.843, 949.250 552, 950.304 552 C 952.554 552, 958.208 545.139, 1002.637 488.500 C 1013.494 474.659, 1033.141 446.240, 1055.179 412.500 C 1058.771 407, 1064.763 397.824, 1068.495 392.108 C 1087.278 363.343, 1102 339.500, 1102 337.848 C 1102 336.108, 1100.899 336.013, 1083.250 336.226 L 1064.500 336.452 1082.750 336.749 M 867.172 339.454 C 858.931 342.515, 852.450 348.103, 848.591 355.476 C 845.764 360.877, 845.500 362.197, 845.500 370.941 C 845.500 379.538, 845.796 381.084, 848.443 386.308 C 852.941 395.185, 860.531 401.181, 870.756 403.934 L 875 405.077 875 529.039 L 875 653 907.750 652.764 L 940.500 652.529 908.250 652.250 L 876 651.972 876 528.213 L 876 404.454 868.894 402.035 C 860.025 399.015, 853.207 393.158, 849.300 385.203 C 846.857 380.226, 846.502 378.354, 846.517 370.500 C 846.533 362.449, 846.843 360.941, 849.455 356.196 C 854.839 346.421, 864.724 339.840, 876.638 338.100 C 882.356 337.265, 882.389 337.242, 878 337.174 C 875.525 337.136, 870.652 338.162, 867.172 339.454 M 940.487 498.500 C 940.487 582.650, 940.606 616.927, 940.750 574.671 C 940.894 532.416, 940.894 463.566, 940.750 421.671 C 940.605 379.777, 940.487 414.350, 940.487 498.500 M 1000.867 502.551 C 999.015 505.053, 993.675 512.079, 989 518.163 C 984.325 524.247, 979.600 530.445, 978.500 531.937 C 977.400 533.428, 973.172 538.809, 969.105 543.895 L 961.711 553.141 964.041 557.320 C 966.480 561.696, 979.055 582.307, 986.910 594.802 C 1008.987 629.924, 1015.845 637.763, 1031.094 645.313 C 1036.268 647.874, 1042.075 650.211, 1044 650.506 C 1047.420 651.030, 1047.407 651.011, 1043.444 649.684 C 1037.499 647.693, 1027.182 642.288, 1021.797 638.344 C 1015.520 633.746, 1008.947 626.317, 1002.028 616 C 996.124 607.197, 970.273 565.924, 965.695 557.992 L 963.094 553.484 974.188 539.492 C 980.291 531.796, 989.761 519.530, 995.235 512.233 L 1005.186 498.967 1006.930 501.233 C 1010.279 505.587, 1027.161 532.433, 1054.261 576.500 C 1061.364 588.050, 1068.199 599.075, 1069.450 601 C 1072.497 605.689, 1093.032 638.751, 1100.722 651.349 C 1101.007 651.815, 1089.169 652.040, 1074.415 651.849 C 1059.662 651.657, 1048.920 651.784, 1050.545 652.132 C 1055.926 653.282, 1102 653.099, 1102 651.927 C 1102 651.115, 1064.144 589.510, 1037.524 547 C 1014.008 509.449, 1006.503 498.014, 1005.367 498.007 C 1004.744 498.003, 1002.719 500.048, 1000.867 502.551" stroke="none" fill="#3f4041" fill-rule="evenodd"/><path d="M 876.638 338.092 C 864.709 339.850, 854.836 346.425, 849.455 356.196 C 846.843 360.941, 846.533 362.449, 846.517 370.500 C 846.502 378.354, 846.857 380.226, 849.300 385.203 C 853.207 393.158, 860.025 399.015, 868.894 402.035 L 876 404.454 876 528.227 L 876 652 908.003 652 L 940.006 652 939.753 494.750 L 939.500 337.500 911 337.364 C 895.325 337.290, 879.862 337.617, 876.638 338.092 M 1055.367 338.053 C 1035.060 340.701, 1017.351 352.426, 1004.848 371.500 C 985.839 400.499, 975.976 415.867, 959.342 442.406 L 950 457.312 950 504.311 L 950 551.310 952.124 549.405 C 953.978 547.741, 962.317 537.440, 992.523 499.500 C 1002.143 487.417, 1015.176 469.802, 1023.969 457 C 1046.737 423.849, 1101 340.023, 1101 338.001 C 1101 336.805, 1064.624 336.846, 1055.367 338.053 M 995.235 512.233 C 989.761 519.530, 980.291 531.796, 974.188 539.492 L 963.094 553.484 965.695 557.992 C 970.253 565.889, 996.099 607.159, 1002.338 616.500 C 1012.648 631.939, 1023.599 641.377, 1038.616 647.764 C 1046.630 651.173, 1055.804 652.080, 1079.222 651.779 L 1100.945 651.500 1098.101 647 C 1096.537 644.525, 1089.958 633.950, 1083.481 623.500 C 1077.004 613.050, 1070.686 602.925, 1069.440 601 C 1068.195 599.075, 1061.364 588.050, 1054.261 576.500 C 1027.161 532.433, 1010.279 505.587, 1006.930 501.233 L 1005.186 498.967 995.235 512.233" stroke="none" fill="#f9f9fa" fill-rule="evenodd"/></svg>