<?xml version="1.0" standalone="no"?>
<!DOCTYPE svg PUBLIC "-//W3C//DTD SVG 20010904//EN"
 "http://www.w3.org/TR/2001/REC-SVG-20010904/DTD/svg10.dtd">
<svg version="1.0" xmlns="http://www.w3.org/2000/svg"
 width="1920.000000pt" height="1080.000000pt" viewBox="0 0 1920.000000 1080.000000"
 preserveAspectRatio="xMidYMid meet">

<g transform="translate(0.000000,1080.000000) scale(0.100000,-0.100000)"
fill="#000000" stroke="none">
<path d="M8738 7420 c-62 -11 -161 -64 -200 -109 -42 -48 -78 -130 -85 -194
-15 -151 104 -315 253 -348 l54 -12 0 -1244 0 -1243 320 0 320 0 0 1580 0
1580 -307 -1 c-170 -1 -329 -5 -355 -9z"/>
<path d="M10510 7421 c-55 -8 -165 -48 -202 -73 -14 -10 -29 -18 -33 -18 -11
0 -64 -44 -123 -103 -56 -55 -163 -211 -363 -527 -16 -25 -32 -49 -37 -55 -4
-5 -25 -39 -47 -75 -21 -36 -59 -97 -84 -135 -51 -78 -57 -88 -101 -162 l-30
-53 0 -469 c0 -418 2 -469 16 -467 17 3 42 28 94 96 19 25 48 61 65 81 40 48
50 60 121 154 34 44 72 93 85 109 13 15 38 45 55 65 105 125 265 350 491 691
108 162 227 341 265 397 37 56 68 104 68 107 0 3 17 31 39 63 36 55 59 91 179
279 29 45 52 86 52 92 0 13 -425 15 -510 3z"/>
<path d="M9967 5708 c-75 -101 -135 -179 -269 -350 -38 -47 -68 -89 -68 -93 0
-4 16 -34 35 -68 40 -69 43 -75 101 -167 23 -36 58 -92 78 -125 38 -61 158
-247 210 -326 66 -99 204 -210 319 -257 107 -43 177 -52 415 -52 201 0 222 2
222 17 0 9 -6 24 -14 32 -7 9 -57 88 -112 176 -103 169 -121 198 -249 402 -44
70 -85 137 -91 148 -6 11 -26 45 -46 75 -40 61 -132 209 -224 361 -113 185
-209 328 -219 329 -6 0 -45 -46 -88 -102z"/>
</g>
</svg>
